<svg xmlns="http://www.w3.org/2000/svg" viewBox="0 0 350 350"><g fill="none" fill-rule="evenodd"><path fill="#FFF" fill-rule="nonzero" d="M177.63 0c20.453.181 40.905 1.087 61.255 3.261 27.304 2.899 54.2 7.609 80.174 15.58 5.727 1.721 11.351 3.714 16.873 5.888 8.897 3.533 13.09 9.964 13.704 18.388.818 11.595.102 23.19-.614 34.784-.511 7.337-1.023 14.584-1.84 21.921-.819 7.337-1.944 14.765-3.17 22.102-2.762 16.033-6.75 31.885-11.863 47.556-14.828 44.929-39.371 85.148-74.243 120.294-20.35 20.562-72.402 57.248-74.652 58.244-5.624 2.627-11.555 2.718-16.975-.18-5.219-2.82-63.505-45.836-83.651-67.847-28.531-31.16-49.188-66.035-62.687-104.351-6.851-19.294-11.658-39.041-14.828-59.06C1.636 94.659 0 72.647 0 50.545c0-3.623.41-7.247.92-10.87 1.023-6.25 4.807-11.141 11.25-13.859 6.442-2.717 13.191-5.073 20.043-7.247 19.839-6.16 40.291-10.145 61.05-13.043C124.453 1.178 150.121.09 177.733.09L177.63 0Z"/><path fill="#000" fill-rule="nonzero" d="M175.866 76c.537.648 1.21 1.294 1.478 2.07.538 1.554.807 3.236 1.074 4.79.135.905.538 1.551 1.748.905 2.016-.905 2.15-.776 2.418 1.294.134 1.811.403 3.624.537 5.824 1.21-.777 2.017-1.683 2.958-2.07 1.746-.778 1.208 1.293 2.014 1.812 4.435-3.755 10.08-6.083 13.304-5.306-.101.452-.193.905-.281 1.358l-.513 2.718-.282 1.359c.27.129.404.258.672.258 1.076-2.717 3.09-4.27 5.778-5.046.136 1.94 0 3.753.404 5.434.404 1.813 1.612 3.495 2.15 5.306.537 2.33 2.15 3.365 4.301 4.013 2.015.517 4.03 1.036 5.912 1.682 1.613.519 3.09 1.424 4.703 2.2-.134.13-.134.388-.134.518-5.851.65-10.1 3.84-14.245 7.291l-1.035.867c-.46.387-.92.774-1.383 1.16 1.612-.647 3.09-1.424 4.569-2.2 4.703-2.2 9.54-3.753 14.916-2.846 2.687.516 5.507 1.163 8.196 1.68 1.747.389 2.15 1.035 1.613 2.977-.404-.128-.805-.258-1.21-.388-2.418-.776-4.838-1.683-7.39-2.46-1.345-.386-2.687-.128-3.897 1.296 6.046.906 11.152 3.234 15.318 8.152-4.164-.906-7.928-1.811-11.825-1.163.268.257.268.517.268.517.136.129.27.258.405.258 4.837 1.941 7.927 5.694 10.614 9.837 2.017 3.105 4.3 6.21 6.584 9.317.674.906 1.749 1.423 2.688 2.2l-.537.647c-1.612-.776-3.36-1.294-4.703-2.33a132.036 132.036 0 0 1-4.45-3.616l-2.925-2.472a132.41 132.41 0 0 0-4.449-3.617c-1.613-1.165-3.495-2.33-5.376-3.107-1.612-.646-3.36-.517-5.24.389 2.013.568 4.029 1.13 6.046 1.682v.517c-1.343.26-2.552.389-3.897.648 3.897 1.553 7.794 2.588 10.617 5.564-1.345-.129-2.554-.517-3.763-.648h-3.763c4.748 1.64 7.526 2.978 8.33 4.014-6.852.388-7.39.388-8.867 1.811 4.702-.905 8.868.13 12.766 2.33.134 0 .402.258.536.258h16.26l-.537-.387c2.821 0 4.836.258 6.18 1.681 1.479 1.423 1.479 3.495 1.479 5.437-.538 13.2-1.613 27.306-5.375 41.154-1.209 4.788-4.3 7.764-9.407 9.06-1.611.388-3.09.775-4.702 1.034.268.648.402 1.294.671 1.942.134.646.134 1.294.134 1.941-1.477-.259-2.687-.388-4.165-.647v1.682c.269 2.588 1.21 5.306.537 7.765-1.344 5.307.404 9.706 2.823 14.106.135.26.402.518.402.777.135.388.135.906.403 1.682-1.88-1.165-3.493-2.2-5.508-3.364l.06.457c-4.073 6.958-9.63 14.84-18.739 22.967.268-3.364.404-6.471.673-9.447h-.538c-1.21 4.66-4.838 7.377-8.466 10.224.135-1.165.27-2.33.27-3.753-.942.517-1.614.646-2.152 1.035-1.746 1.424-3.493 2.976-5.374 4.4-.403.258-1.075.389-1.613.646-.134-.646-.268-1.294-.134-1.812.269-1.293.807-2.458 1.344-3.623l-.537-.258c-1.48 2.329-3.09 4.53-4.3 6.989-2.151 4.658-5.78 7.635-10.617 9.317-5.643 1.942-11.556 1.294-17.2.777-7.524-.518-13.034-4.27-16.124-11.13-1.076-2.2-2.822-4.141-4.166-6.214-.134.13-.269.261-.403.261.134 1.94 2.554 3.494 1.21 6.341-3.225-2.588-6.182-4.789-9.004-7.117-1.21 2.847-2.016 2.976-4.165.646a5.726 5.726 0 0 1-1.074-1.423c-1.077-1.684-2.017-3.495-3.093-5.306v9.318c-8.481-7.55-17.542-11.076-19.843-21.445l.104-.852.12-.998a159.56 159.56 0 0 0-5.642 3.235c.134-1.553.672-2.847 1.074-4.141.806-2.978 2.016-6.083 2.016-9.19.134-3.622-.403-7.117.94-10.612.404-1.293-.402-1.942-1.747-1.68-.845.276-1.696.535-2.552.774v-.905c.134-1.035.269-2.2.536-3.236-1.208-.258-2.418-.646-3.628-.905-6.583-1.813-8.733-5.953-9.27-9.058-1.479-8.284-2.689-16.567-3.897-24.72l-.807-5.305c-.537-3.107-1.075-6.342-1.075-9.578 0-3.366.269-5.435 1.747-6.988 1.682-1.62 4.112-1.8 7.17-1.811h13.927c4.3-2.33 8.735-3.754 13.707-2.719-2.689-2.07-5.779-1.813-9.272-1.813 2.015-1.94 4.409-2.498 6.84-3.038l.695-.155c.58-.13 1.16-.267 1.735-.43-2.821-1.034-5.106.13-7.39.647-.134-.258-.269-.517-.269-.775l10.482-5.048c-1.075-.258-2.285-.389-3.359-.647v-.388c1.746-.517 3.628-.906 5.644-1.553-2.823-1.165-5.377-1.165-7.66.388-1.88 1.294-3.628 2.976-5.374 4.4-3.226 2.717-6.585 5.436-9.944 7.895-1.076.905-2.687 1.294-4.032 1.811 0-.129-.268-.387-.268-.517 4.03-3.365 6.449-7.765 9.137-11.907 2.284-3.493 5.105-6.598 9.002-8.67.54-.26.941-.906 1.479-1.295-.135-.259-.27-.388-.27-.647-3.493.519-7.12.907-10.883 1.424 4.031-4.789 9.54-6.988 15.99-7.765-2.149-1.424-4.165-1.811-6.181-1.165-2.15.646-4.166 1.682-6.18 2.588-1.075.519-1.48.388-1.48-.775 0-1.165.538-1.812 1.614-1.942.94-.258 2.016-.388 2.955-.519 3.897-.646 7.66-1.294 11.556-1.941.034 0 .067.008.1.02l.203.09.1.02c-.134.129-.403.26-.672.517.874.26 1.722.567 2.562.88l.838.314c2.23.835 4.44 1.612 6.948 1.525-3.09-4.142-7.794-5.824-13.17-7.118 1.21-.907 2.017-1.553 2.957-1.942 3.226-1.293 6.585-2.458 9.944-3.623 1.208-.387 2.285-.648 1.613-2.329-.134-.388.403-1.036.672-1.423 1.88-2.331 2.553-4.92 2.15-7.767-.135-.517 0-1.163.268-1.294.269-.129 1.076 0 1.344.26.941.646 1.746 1.552 2.553 2.33.672.517 1.075 1.163 1.613 1.811l.538-.26c-.405-1.941-.941-3.752-1.345-5.694 5.51.13 10.348 1.553 13.841 6.6.27-1.552.27-2.588.27-4.01 1.61 1.163 2.82 2.07 4.434 3.234.133-2.071.268-3.753.537-5.436.135-.905.537-2.459 1.074-2.459 1.748-.388 2.015-1.551 2.42-2.847a9.178 9.178 0 0 1 1.208-2.588c.403-.646 1.075-1.165 1.748-1.682Zm16.527 121.628c.135 1.165.27 1.941.27 2.59.134 1.034-.135 1.94-1.345 1.681-4.031-1.036-6.584 1.165-9.136 3.624-1.211 1.164-2.285 2.329-3.495 3.494-1.746 1.811-2.821 1.811-4.703 0-1.88-1.811-3.628-3.882-5.777-5.306-1.48-.906-3.494-1.554-5.376-1.554-3.09-.129-3.493-.258-3.224-3.364.132-.258.132-.647.132-1.165-2.418 1.165-3.223 3.235-3.223 5.436-.134 3.623 2.284 6.858 5.912 8.023 3.359 1.037 6.182 2.848 8.062 5.824l.21.335.418.67c1.809 2.908 3.524 5.88 3.403 9.479-.134 6.211-4.972 11.13-12.362 10.222-8.331-1.034-14.243-7.375-16.393-15.66-2.017-7.635-.941-12.68 4.434-20.705l-3.897 1.941c-1.477 3.236-2.956 6.083-4.165 8.93-.404.906-.807 1.94-.672 2.848.537 3.105 1.21 6.34 2.15 9.317 2.418 7.894 7.39 13.718 15.722 16.565.302.097.613.194.928.291l1.906.583.928.29v.26c-.94-.13-1.747-.13-2.687-.13 3.223 2.33 6.718 2.59 10.884 1.553-.807 1.036-1.209 1.682-1.613 2.33l.537.517c1.077-.905 2.151-1.682 3.36-2.716-.134 1.034-.404 1.94-.404 2.845 1.214.207 1.404-.463 1.577-1.156l.062-.244c.14-.525.34-1.005 1.05-1.057.268.777.672 1.682 1.073 2.588h.405c.133-.777.269-1.682.538-2.976.94 1.294 1.611 2.2 2.418 3.106.1-.098.277-.195.36-.238l.043-.023c-.134-.776-.269-1.551-.403-2.588 1.075.777 1.747 1.294 2.687 1.942.269-.648.403-1.165.403-1.165 3.226-.777 6.182-1.553 9.003-2.2v-.518l-.134.13H188.9c.672-.517 1.344-.647 2.016-.905 2.418-1.036 5.107-1.813 7.39-3.236 6.315-3.883 9.541-9.836 11.153-16.695.403-1.683.136-3.624 1.075-4.918 1.479-2.07.404-3.365-.403-4.918-1.478-2.588-2.956-5.306-4.703-8.412l-3.36-1.941c6.855 8.93 7.122 18.248 1.478 27.565-4.164 6.86-11.823 9.967-19.484 8.025-3.09-.777-4.837-2.59-5.644-5.437-2.015-6.34 1.344-11.258 4.703-16.176 1.613-2.458 4.166-3.624 6.854-4.53 3.09-.905 4.704-3.235 5.241-6.212.402-2.588-.269-4.787-2.823-6.86Zm-71.352 6.107.246.445c.971 1.776 1.81 3.476 2.306 5.506.673-1.811 1.21-3.622 1.345-5.564-1.345-.129-2.553-.387-3.897-.387Zm110.052.128c-1.208.13-2.552.388-3.896.388.269 1.813.537 3.495.806 5.306l-.029-.191.54-.973c.645-1.161 1.29-2.314 1.934-3.429ZM175.866 98h-.941a441.607 441.607 0 0 0-2.015 8.543 33.196 33.196 0 0 1-2.017-2.072c1.21 4.659 2.956 8.671 2.689 13.46-2.42-1.813-4.57-3.624-6.854-5.047h-.135c-3.493-2.33-5.375-2.847-7.793-2.847 8.197 4.788 13.572 11.518 16.797 20.448 4.165-8.672 9.137-16.307 17.872-20.836-6.45.646-11.153 4.14-15.587 8.8-.403-5.047 1.343-9.189 2.552-13.718-2.552 1.553-2.821 1.423-3.224-1.167-.405-1.81-.941-3.753-1.344-5.564Z"/><path fill="#FFF" fill-rule="nonzero" d="M258.703 150.74c-.538 13.056-1.48 27.023-5.246 40.6-.94 3.394-2.824 5.223-6.456 6.136-13.855 3.524-27.576 3.654-39.144 3.264-5.246-.132-8.205-3.656-9.82-6.528a1343.755 1343.755 0 0 1-14.124-25.979c-1.075-2.088-2.824-5.22-7.129-5.22-4.17 0-5.784 3.002-6.994 5.22-4.573 8.486-9.416 17.625-14.393 26.631-2.286 4.049-6.054 6.136-11.568 6.136-12.511 0-24.886-.26-36.992-3.394-3.632-.913-5.65-2.872-6.187-5.744-1.48-8.225-2.691-16.58-3.902-24.804l-.806-5.35c-.405-3.005-.942-6.137-.942-9.139 0-.915 0-3.525.538-4.049.538-.52 3.228-.52 4.44-.52H255.61c2.42 0 2.959.26 3.093.392 0 0 .404.391.27 2.48l-.27-.131Z"/><path fill="#000" fill-rule="nonzero" d="M288.37 55.341c-.941-4.252-4.312-7.859-8.898-8.245-2.83-.258-5.798 0-8.493.9-7.82 2.32-14.426 6.83-20.763 11.598-13.482 9.793-25.211 21.519-37.48 32.471-1.215 1.031-1.348 2.19-.27 3.35.809.773 1.752 1.676 2.83 1.933 4.72 1.03 8.09 3.865 11.326 7.087 2.022 1.933 4.45 3.608 7.01 4.897 2.563 1.288 5.394.128 6.607-2.192-2.696-.386-5.798.645-8.224-1.546 2.157-.901 4.18-1.802 6.606-2.705a63.147 63.147 0 0 1-3.506-1.805c3.372-.9 6.743-.257 10.113-2.576-2.157 0-3.641-.257-5.259-.257 6.067-2.708 12.404-4.769 16.584-10.31-4.45 2.45-8.9 4.51-14.156 4.769 6.606-2.578 11.595-7.088 16.447-12.498-3.235.643-5.797 2.318-9.302 1.802 5.392-2.576 10.517-4.639 14.56-9.406-4.043 1.289-7.414 3.092-11.864 2.32 2.967-2.062 5.932-3.223 7.821-6.056-2.967 1.287-5.663 2.576-8.36 3.736-.135-.258-.27-.515-.404-.645 3.37-3.607 6.606-7.345 10.112-10.694 3.774-3.608 8.358-5.799 13.751-6.572 5.259-.773 8.494 1.289 9.574 6.185.404 1.675.674 3.48.674 5.153 0 9.794-2.293 19.33-5.663 28.607-2.832 7.602-6.876 14.432-12.673 20.359-1.079 1.161-2.293 2.061-3.506 3.222l-.27-.258c.54-1.03.944-2.061 1.617-3.48-2.56 2.32-4.717 4.123-7.01 6.057 0 0-.27-.257-.27-.386.406-1.546.944-3.092 1.348-4.51-1.887 1.418-3.101 3.091-4.717 4.639-3.237 3.092-6.743 5.927-9.978 8.89-.54.516-1.078 1.418-.943 1.933.673 1.675 1.482 3.223 2.426 4.896.539 1.03 1.617 1.29 2.696.645 1.348-.645 2.697-1.29 3.91-2.062 13.483-7.73 23.19-18.555 29.796-32.085 7.282-14.818 9.708-30.41 6.337-46.646l-.135-.515Zm-181.464 75.604c.535-1.277.267-2.042-.802-3.063-2.806-2.297-5.478-4.594-8.016-7.018-2.005-1.786-3.874-3.828-5.745-5.743 0 0-.267.128-.4.256.4 1.276.666 2.68 1.068 3.955-.134 0-.267.256-.4.256-1.871-1.915-3.743-3.83-5.612-5.615 0 0-.267.128-.402.256.537 1.276 1.07 2.552 1.605 3.955-4.01-3.063-7.082-6.89-9.888-10.846C70.7 96.236 66.824 83.857 65.89 70.84c-.267-3.701 0-7.401.535-11.102.534-3.19 2.806-4.977 6.012-4.977 2.539 0 5.077.255 7.481 1.022 4.81 1.531 8.685 4.465 12.159 7.911 2.406 2.424 4.409 5.232 6.68 7.784l-.535.51c-2.27-1.02-4.542-1.914-7.08-3.062 2.136 2.935 5.344 3.828 8.283 5.742-4.542 1.149-8.283-.765-12.025-1.914 3.34 4.34 8.551 6.253 13.093 8.805 0 .256 0 .383-.133.639-2.538-.639-4.942-1.15-7.883-1.915 4.544 4.976 9.22 9.443 15.365 11.995-4.943-.128-9.085-2.169-13.36-4.338 4.142 5.232 10.287 7.528 16.566 9.57v.51c-1.603 0-3.34.128-5.477.256 3.34 2.169 6.546 1.915 9.754 2.424-.937.511-1.871 1.022-3.341 1.787 2.271 1.02 4.142 1.915 6.012 2.68v.51c-1.336.256-2.538.766-3.874.893-1.337.128-2.806 0-4.276 0 1.603 2.297 4.142 3.191 6.814 2.297 3.474-1.02 5.878-3.445 8.284-5.87 3.073-2.934 6.146-5.997 9.352-8.805 2.672-2.296 2.805-3.19.133-5.487-4.942-4.466-9.886-8.933-14.963-13.398-8.952-7.911-18.036-15.696-28.459-21.822-5.077-2.935-10.153-5.615-16.166-6.38-6.145-.766-11.222 2.68-12.425 8.422-1.603 7.784-1.87 15.569-.667 23.48 3.606 23.48 15.631 41.984 36.875 54.617 5.21 3.063 6.145 2.68 8.283-2.68Z"/><path fill="#000" d="M175.96 146c3.922-8.605 8.79-16.134 17.04-20.572-6.221.539-10.685 4.034-14.877 8.605-.406-4.974 1.353-9.008 2.435-13.445-2.435 1.614-2.705 1.479-3.111-1.077-.271-1.88-.812-3.629-1.218-5.511h-.947c-.674 2.69-1.217 5.513-1.893 8.471-.675-.673-1.216-1.21-1.894-2.152 1.082 4.571 2.841 8.606 2.57 13.178-2.298-1.749-4.327-3.497-6.627-4.975-3.38-2.153-5.14-2.825-7.438-2.825 7.844 4.706 12.985 11.429 16.094 20.17l-.135.133Z"/></g></svg>